<svg width="92" height="22" viewBox="0 0 92 22" fill="none" xmlns="http://www.w3.org/2000/svg">
<rect x="0.302734" y="0.92395" width="91.678" height="20.954" rx="10.477" fill="#FDEDB7"/>
<g clip-path="url(#clip0_119_2171)">
<path d="M11.4506 13.8525V15.6037H13.2017L18.3664 10.4343L16.6152 8.68319L11.4506 13.8525ZM20.6078 14.3709L18.6232 16.3555L16.195 13.9272L17.0215 13.1007L17.4885 13.5677L18.6419 12.4096L19.305 13.0727L18.6232 13.7358L19.1182 14.2028L19.7813 13.549L20.6078 14.3709ZM13.1363 10.8546L10.6987 8.43103L12.6833 6.44641L13.5052 7.27295L12.3518 8.43103L12.8515 8.92601L14.0002 7.76793L14.6633 8.43103L14.0002 9.08945L14.4672 9.55642L13.1363 10.8546ZM19.7206 9.06611C19.9027 8.88399 19.9027 8.59914 19.7206 8.40768L18.6279 7.33365C18.4551 7.15153 18.1515 7.15153 17.9694 7.33365L17.1102 8.1882L18.8613 9.93934L19.7206 9.06611Z" fill="#B89620"/>
</g>
<path d="M31.4754 8.58282H32.5293V12.384C32.5293 12.8006 32.4309 13.1671 32.2339 13.4834C32.0388 13.7997 31.7642 14.0468 31.41 14.2249C31.0559 14.401 30.642 14.4891 30.1685 14.4891C29.6932 14.4891 29.2784 14.401 28.9242 14.2249C28.5701 14.0468 28.2954 13.7997 28.1004 13.4834C27.9053 13.1671 27.8078 12.8006 27.8078 12.384V8.58282H28.8617V12.2959C28.8617 12.5383 28.9148 12.7542 29.0208 12.9436C29.1288 13.133 29.2803 13.2817 29.4754 13.3896C29.6704 13.4957 29.9015 13.5487 30.1685 13.5487C30.4356 13.5487 30.6667 13.4957 30.8617 13.3896C31.0587 13.2817 31.2102 13.133 31.3163 12.9436C31.4223 12.7542 31.4754 12.5383 31.4754 12.2959V8.58282ZM34.7289 8.58282V14.401H33.6749V8.58282H34.7289ZM38.1998 8.31009L36.3248 15.276H35.4242L37.2992 8.31009H38.1998ZM42.5691 8.58282H43.6231V12.384C43.6231 12.8006 43.5246 13.1671 43.3276 13.4834C43.1326 13.7997 42.8579 14.0468 42.5038 14.2249C42.1496 14.401 41.7358 14.4891 41.2623 14.4891C40.7869 14.4891 40.3721 14.401 40.018 14.2249C39.6638 14.0468 39.3892 13.7997 39.1941 13.4834C38.999 13.1671 38.9015 12.8006 38.9015 12.384V8.58282H39.9555V12.2959C39.9555 12.5383 40.0085 12.7542 40.1146 12.9436C40.2225 13.133 40.374 13.2817 40.5691 13.3896C40.7642 13.4957 40.9953 13.5487 41.2623 13.5487C41.5293 13.5487 41.7604 13.4957 41.9555 13.3896C42.1524 13.2817 42.304 13.133 42.41 12.9436C42.5161 12.7542 42.5691 12.5383 42.5691 12.2959V8.58282ZM45.6494 8.58282L46.9306 10.7135H46.9761L48.263 8.58282H49.4647L47.6721 11.4919L49.4931 14.401H48.2715L46.9761 12.2845H46.9306L45.6352 14.401H44.4193L46.2573 11.4919L44.442 8.58282H45.6494ZM54.2481 14.401H52.2765V8.58282H54.2879C54.8655 8.58282 55.3617 8.6993 55.7765 8.93225C56.1932 9.16331 56.5132 9.4957 56.7367 9.92941C56.9602 10.3631 57.072 10.8821 57.072 11.4862C57.072 12.0923 56.9593 12.6131 56.7339 13.0487C56.5104 13.4843 56.1875 13.8186 55.7651 14.0516C55.3447 14.2845 54.839 14.401 54.2481 14.401ZM53.3305 13.4891H54.197C54.6023 13.4891 54.9403 13.4152 55.2112 13.2675C55.482 13.1179 55.6856 12.8953 55.822 12.5999C55.9583 12.3025 56.0265 11.9313 56.0265 11.4862C56.0265 11.0412 55.9583 10.6718 55.822 10.3783C55.6856 10.0828 55.4839 9.86218 55.2168 9.71634C54.9517 9.56861 54.6221 9.49475 54.2282 9.49475H53.3305V13.4891ZM58.0734 14.401V8.58282H61.8575V9.46634H59.1274V11.0459H61.6614V11.9294H59.1274V13.5175H61.8802V14.401H58.0734ZM66.0947 10.1823C66.0682 9.93414 65.9564 9.74096 65.7595 9.60271C65.5644 9.46445 65.3106 9.39532 64.9981 9.39532C64.7784 9.39532 64.5899 9.42846 64.4328 9.49475C64.2756 9.56104 64.1553 9.651 64.072 9.76464C63.9886 9.87827 63.946 10.008 63.9441 10.1538C63.9441 10.2751 63.9716 10.3802 64.0265 10.4692C64.0833 10.5582 64.16 10.634 64.2566 10.6965C64.3532 10.7571 64.4602 10.8082 64.5776 10.8499C64.6951 10.8915 64.8134 10.9266 64.9328 10.955L65.4782 11.0913C65.6979 11.1425 65.9091 11.2116 66.1117 11.2987C66.3163 11.3858 66.499 11.4957 66.66 11.6283C66.8229 11.7608 66.9517 11.9209 67.0464 12.1084C67.1411 12.2959 67.1884 12.5156 67.1884 12.7675C67.1884 13.1084 67.1013 13.4086 66.9271 13.668C66.7528 13.9256 66.5009 14.1273 66.1714 14.2732C65.8437 14.4171 65.447 14.4891 64.981 14.4891C64.5284 14.4891 64.1354 14.419 63.8021 14.2788C63.4706 14.1387 63.2112 13.9341 63.0237 13.6652C62.8381 13.3963 62.7377 13.0686 62.7225 12.6823H63.7595C63.7746 12.8849 63.8371 13.0535 63.947 13.1879C64.0568 13.3224 64.1998 13.4228 64.3759 13.4891C64.554 13.5554 64.7528 13.5885 64.9725 13.5885C65.2017 13.5885 65.4024 13.5544 65.5748 13.4862C65.749 13.4162 65.8854 13.3196 65.9839 13.1965C66.0824 13.0715 66.1326 12.9256 66.1345 12.759C66.1326 12.6074 66.0881 12.4824 66.0009 12.384C65.9138 12.2836 65.7917 12.2002 65.6345 12.134C65.4792 12.0658 65.2973 12.0052 65.089 11.9521L64.4271 11.7817C63.9479 11.6586 63.5691 11.472 63.2907 11.222C63.0142 10.9701 62.8759 10.6358 62.8759 10.2192C62.8759 9.87638 62.9687 9.57619 63.1543 9.31861C63.3418 9.06104 63.5966 8.86123 63.9185 8.71918C64.2405 8.57524 64.6051 8.50327 65.0123 8.50327C65.4252 8.50327 65.7869 8.57524 66.0975 8.71918C66.41 8.86123 66.6553 9.05914 66.8333 9.31293C67.0113 9.56483 67.1032 9.8546 67.1089 10.1823H66.0947ZM69.182 8.58282V14.401H68.1281V8.58282H69.182ZM74.2211 10.4408C74.1738 10.2874 74.1084 10.1501 74.0251 10.0288C73.9436 9.90574 73.8452 9.80062 73.7296 9.7135C73.616 9.62638 73.4853 9.56104 73.3376 9.51748C73.1899 9.47202 73.0289 9.4493 72.8546 9.4493C72.5421 9.4493 72.2637 9.52789 72.0194 9.68509C71.7751 9.84229 71.5828 10.0733 71.4427 10.3783C71.3044 10.6813 71.2353 11.0506 71.2353 11.4862C71.2353 11.9256 71.3044 12.2978 71.4427 12.6027C71.581 12.9076 71.7732 13.1396 72.0194 13.2987C72.2656 13.4559 72.5516 13.5345 72.8774 13.5345C73.1728 13.5345 73.4285 13.4777 73.6444 13.3641C73.8622 13.2504 74.0298 13.0894 74.1472 12.8811C74.2647 12.6709 74.3234 12.4247 74.3234 12.1425L74.562 12.1794H72.9825V11.3555H75.3433V12.0544C75.3433 12.5525 75.2372 12.9834 75.0251 13.347C74.813 13.7107 74.5213 13.991 74.1501 14.1879C73.7789 14.383 73.3527 14.4805 72.8717 14.4805C72.3357 14.4805 71.865 14.3603 71.4597 14.1198C71.0563 13.8773 70.741 13.5336 70.5137 13.0885C70.2883 12.6415 70.1756 12.1112 70.1756 11.4976C70.1756 11.0279 70.2419 10.6084 70.3745 10.2391C70.509 9.86975 70.6965 9.5563 70.937 9.29873C71.1775 9.03926 71.4597 8.84229 71.7836 8.70782C72.1075 8.57146 72.4597 8.50327 72.8404 8.50327C73.1624 8.50327 73.4626 8.55062 73.741 8.64532C74.0194 8.73812 74.2666 8.8707 74.4825 9.04305C74.7003 9.21539 74.8792 9.41994 75.0194 9.65668C75.1595 9.89343 75.2514 10.1548 75.295 10.4408H74.2211ZM81.1437 8.58282V14.401H80.2062L77.4647 10.4379H77.4164V14.401H76.3624V8.58282H77.3056L80.0443 12.5487H80.0954V8.58282H81.1437Z" fill="#B99620"/>
<defs>
<clipPath id="clip0_119_2171">
<rect width="11.2072" height="11.2072" fill="white" transform="translate(10.0496 5.79736)"/>
</clipPath>
</defs>
</svg>
